<svg xmlns="http://www.w3.org/2000/svg" width="500" height="60" viewBox="0 0 500 60">
  <defs>
    <style>
      .cls-1 {
        fill: #1b1464;
      }

      .cls-2 {
        fill: #f7daaf;
      }

      .cls-3 {
        fill: #c1272d;
      }

      .cls-4 {
        fill: #f7931e;
      }

      .cls-5, .cls-6 {
        fill: #fff;
      }

      .cls-6 {
        font-size: 85px;
        font-family: MarkaziText-Regular, Markazi Text;
        letter-spacing: 0.08em;
      }

      .cls-7 {
        font-size: 36px;
        font-family: MarkaziText-Regular, Markazi Text;
        letter-spacing: 0.02em;
      }


    </style>
  </defs>
  <g id="Layer_7" data-name="Layer 7">
    <g>
      <g>
        <circle class="cls-1" cx="27.59" cy="27.46" r="27.46"/>
        <path class="cls-2" d="M43,29.62c0,.32-.1.64-.16,1A15.58,15.58,0,0,1,30.35,42.79l-.67.1v-5a10.61,10.61,0,0,0,8.25-8.25Z"/>
        <path class="cls-3" d="M25.43,48.37v6.55c-1-.08-1.9-.2-2.83-.37A27.53,27.53,0,0,1,.59,33a28.25,28.25,0,0,1-.46-3.34H6.68a19.67,19.67,0,0,0,.31,2A21,21,0,0,0,23.77,48.14C24.32,48.23,24.87,48.31,25.43,48.37Z"/>
        <path class="cls-4" d="M25.43,42.89v5.48c-.56-.06-1.11-.14-1.66-.23A21,21,0,0,1,7,31.66a19.67,19.67,0,0,1-.31-2h5.47c0,.32.1.64.17,1A15.57,15.57,0,0,0,24.76,42.79Z"/>
        <path class="cls-2" d="M25.43,37.87v5l-.67-.1A15.57,15.57,0,0,1,12.32,30.58c-.07-.32-.12-.64-.17-1h5A10.6,10.6,0,0,0,25.43,37.87Z"/>
        <path class="cls-2" d="M25.43,12.1v5a10.61,10.61,0,0,0-8.25,8.25h-5c0-.32.1-.64.17-1a15.55,15.55,0,0,1,12.44-12.2Z"/>
        <path class="cls-4" d="M25.43,6.63V12.1l-.67.11a15.55,15.55,0,0,0-12.44,12.2c-.07.32-.12.64-.17,1H6.68a19.67,19.67,0,0,1,.31-2A21,21,0,0,1,23.77,6.86C24.32,6.76,24.87,6.68,25.43,6.63Z"/>
        <path class="cls-3" d="M25.43.08V6.63c-.56,0-1.11.13-1.66.23A21,21,0,0,0,7,23.33a19.67,19.67,0,0,0-.31,2H.13A28.08,28.08,0,0,1,.59,22,27.53,27.53,0,0,1,22.6.44,26.36,26.36,0,0,1,25.43.08Z"/>
        <path class="cls-3" d="M55,25.37H48.42q-.11-1-.3-2A21,21,0,0,0,31.33,6.86c-.54-.1-1.1-.18-1.65-.23V.08a26.69,26.69,0,0,1,2.83.36,27.53,27.53,0,0,1,22,21.6A26.16,26.16,0,0,1,55,25.37Z"/>
        <path class="cls-4" d="M48.42,25.37H43c0-.32-.1-.64-.16-1a15.56,15.56,0,0,0-12.44-12.2l-.67-.11V6.63c.55,0,1.11.13,1.65.23A21,21,0,0,1,48.12,23.33Q48.32,24.34,48.42,25.37Z"/>
        <path class="cls-2" d="M43,25.37h-5a10.62,10.62,0,0,0-8.25-8.25v-5l.67.11a15.56,15.56,0,0,1,12.44,12.2C42.85,24.73,42.91,25.05,43,25.37Z"/>
        <path class="cls-3" d="M55,29.62A26.31,26.31,0,0,1,54.51,33a27.53,27.53,0,0,1-22,21.59c-.93.17-1.88.29-2.83.37V48.37c.55-.06,1.11-.14,1.65-.23A21,21,0,0,0,48.12,31.66q.2-1,.3-2Z"/>
        <path class="cls-4" d="M48.42,29.62q-.11,1-.3,2A21,21,0,0,1,31.33,48.14c-.54.09-1.1.17-1.65.23V42.89l.67-.1A15.58,15.58,0,0,0,42.79,30.58c.06-.32.12-.64.16-1Z"/>
      </g>
      <circle class="cls-5" cx="27.48" cy="27.5" r="6.99"/>
    </g>
    <text class="cls-6" transform="translate(70.64 50)">TrialTrace<tspan class="cls-7" > DB</tspan></text>
  </g>
</svg>
